<?xml version='1.0' encoding='UTF-8' standalone='no'?>
<!DOCTYPE svg PUBLIC '-//W3C//DTD SVG 1.1//EN' 'http://www.w3.org/Graphics/SVG/1.1/DTD/svg11.dtd'>
<!-- Animated using aniGen version 0.8.1 Quality of Life - http://anigen.org -->
<svg xmlns="http://www.w3.org/2000/svg" xmlns:xlink="http://www.w3.org/1999/xlink" version="1.1" x="0px" y="0px" viewBox="0 0 100 125" enable-background="new 0 0 100 100" xml:space="preserve" preserveAspectRatio="xMidYMid" width="100" height="125" xmlns:svg="http://www.w3.org/2000/svg" xmlns:sodipodi="http://sodipodi.sourceforge.net/DTD/sodipodi-0.dtd" xmlns:inkscape="http://www.inkscape.org/namespaces/inkscape" xmlns:anigen="http://www.anigen.org/namespace" anigen:version="0.8.1" id="svg47"><defs id="defs1939"></defs><sodipodi:namedview bordercolor="#666666" borderopacity="1" inkscape:cx="0" inkscape:cy="0" inkscape:zoom="1" id="sodipodi:namedview1202"></sodipodi:namedview><path d="M80.482,50.856c-4.572,0-6.563,1.98-6.563,1.98C71.572,54.82,70,53.93,70,50.855V36.88c0-3.074-3.214-5.88-6.288-5.88  H49.671c-3.074,0-3.769-1.59-1.542-3.71c0,0,3.285-3.057,3.285-8.371c0-7.718-6.257-13.938-13.976-13.938  s-13.975,6.275-13.975,13.993c0,5.314,3.285,8.306,3.285,8.306C28.975,29.401,28.28,31,25.206,31H11.165C8.091,31,6,33.806,6,36.88  v52.547C6,92.502,8.091,95,11.165,95h11.606c3.075,0,4.057-1.985,2.182-4.423c0,0-1.49-1.933-1.49-6.185  c0-7.719,6.257-13.975,13.975-13.975s13.976,6.259,13.976,13.978c0,4.252-1.491,6.181-1.491,6.181  C48.049,93.014,49.031,95,52.105,95h11.606C66.786,95,70,92.502,70,89.428V78.807c0-3.076,1.572-3.967,3.92-1.98  c0,0,2.165,1.98,6.736,1.98c7.719,0,13.889-6.258,13.889-13.977C94.545,57.113,88.199,50.856,80.482,50.856z" transform="matrix(1 0 0 1 1 8)" id="path2532"></path></svg>